<?xml version="1.0" encoding="utf-8"?>
<!-- Generator: Adobe Illustrator 21.1.0, SVG Export Plug-In . SVG Version: 6.00 Build 0)  -->
<svg version="1.1" id="Layer_1" xmlns="http://www.w3.org/2000/svg" xmlns:xlink="http://www.w3.org/1999/xlink" x="0px" y="0px"
	 viewBox="0 0 100.2 100.2" style="enable-background:new 0 0 100.2 100.2;" xml:space="preserve">
<style type="text/css">
	.st0{fill:#FFBB00;}
</style>
<path class="st0" d="M86.9,21.6H70.1l-1.6-5.7c-0.1-0.4-0.4-0.8-0.8-0.9s-0.8-0.2-1.2-0.1l-17.9,6.9c-0.2-0.1-0.4-0.1-0.6-0.1H26.7
	c-0.4,0-0.8,0.2-1.1,0.5L12.4,35.8c-0.3,0.2-0.5,0.5-0.5,0.9v0.1v0.1c0,0,0,0,0,0.1l0,0l0,0v46.8c0,0.8,0.7,1.5,1.5,1.5h66.9
	c0.8,0,1.5-0.7,1.5-1.5v-5.2H87c0.8,0,1.5-0.7,1.5-1.5v-54C88.4,22.3,87.7,21.6,86.9,21.6z M70.8,35.5H21.3l44.8-17.2L70.8,35.5z
	 M27.3,24.6h14l-22.2,8.5L27.3,24.6z M78.7,82.4H14.8V38.5h63.9C78.7,38.5,78.7,82.4,78.7,82.4z M85.4,75.7h-3.7V37
	c0-0.8-0.7-1.5-1.5-1.5h-6.3l-3-10.9h14.4L85.4,75.7L85.4,75.7z"/>
<polygon class="st0" points="14.8,35.5 26.5,22.8 49,22.8 "/>
<polygon class="st0" points="68.7,22.8 72.5,36.5 80,36.5 80,76.8 87,76.8 87,23.7 "/>
</svg>
