<?xml version="1.0" encoding="utf-8"?>
<!-- Generator: Adobe Illustrator 21.1.0, SVG Export Plug-In . SVG Version: 6.00 Build 0)  -->
<svg version="1.1" id="Layer_1" xmlns="http://www.w3.org/2000/svg" xmlns:xlink="http://www.w3.org/1999/xlink" x="0px" y="0px"
	 viewBox="0 0 100.4 100.4" style="enable-background:new 0 0 100.4 100.4;" xml:space="preserve">
<style type="text/css">
	.st0{fill:#FFBB00;}
	.st1{fill:#FFBB00;stroke:#FFBB00;stroke-width:3;stroke-linecap:round;stroke-linejoin:round;stroke-miterlimit:10;}
</style>
<path class="st0" d="M94.4,80.2H4.5c-0.5,0-1-0.3-1.3-0.7c-0.3-0.4-0.3-1-0.1-1.4l16.3-38.2c0.2-0.6,0.8-0.9,1.4-0.9h38.6
	c0.8,0,1.5,0.7,1.5,1.5S60.2,42,59.4,42H21.9L6.8,77.2h85.3L77.5,43c-0.3-0.8,0-1.6,0.8-2c0.8-0.3,1.6,0,2,0.8L95.8,78
	c0.2,0.5,0.2,1-0.1,1.4C95.4,79.9,94.9,80.2,94.4,80.2z"/>
<path class="st0" d="M69.7,79.9c-0.8,0-1.4-0.6-1.5-1.3c0-0.1-1-7.5-11.3-9.2c-1-0.2-2.5-0.3-4.3-0.5c-9.8-0.9-18.7-2.2-20.4-6.7
	c-1.1-3,0.5-5.2,1.8-7c1.4-2,1.9-2.8,1.2-4.1c-0.5-0.8-1.9-1.4-3.3-2c-2.8-1.2-6.6-2.9-6.6-7.4c0-0.8,0.7-1.5,1.5-1.5l0,0
	c0.8,0,1.5,0.7,1.5,1.5c0,2.4,1.8,3.4,4.8,4.7c1.9,0.8,3.8,1.6,4.7,3.3c1.8,3,0,5.5-1.3,7.4c-1.2,1.7-2,2.8-1.4,4.2
	c1.2,3.2,12.5,4.3,17.9,4.8c1.8,0.2,3.4,0.3,4.5,0.5C70,68.5,71.2,77.8,71.2,78.2c0.1,0.8-0.5,1.6-1.3,1.7
	C69.8,79.9,69.8,79.9,69.7,79.9z"/>
<path class="st1" d="M69.9,9.9C60.5,9.9,53,17.5,53,26.8s16.9,34.4,16.9,34.4s16.9-25.1,16.9-34.4S79.2,9.9,69.9,9.9z M69.9,35.3
	c-4.9,0-8.8-4-8.8-8.8c0-4.9,4-8.8,8.8-8.8s8.8,4,8.8,8.8C78.7,31.4,74.7,35.3,69.9,35.3z"/>
</svg>
